<?xml version="1.0" encoding="UTF-8" standalone="no"?>
<svg
   xmlns:dc="http://purl.org/dc/elements/1.1/"
   xmlns:cc="http://creativecommons.org/ns#"
   xmlns:rdf="http://www.w3.org/1999/02/22-rdf-syntax-ns#"
   xmlns:svg="http://www.w3.org/2000/svg"
   xmlns="http://www.w3.org/2000/svg"
   xmlns:sodipodi="http://sodipodi.sourceforge.net/DTD/sodipodi-0.dtd"
   xmlns:inkscape="http://www.inkscape.org/namespaces/inkscape"
   width="24"
   height="24"
   viewBox="0 0 24 24"
   id="svg4228"
   version="1.1"
   inkscape:version="0.91 r13725"
   sodipodi:docname="design-icon.svg">
  <metadata
     id="metadata4238">
    <rdf:RDF>
      <cc:Work
         rdf:about="">
        <dc:format>image/svg+xml</dc:format>
        <dc:type
           rdf:resource="http://purl.org/dc/dcmitype/StillImage" />
      </cc:Work>
    </rdf:RDF>
  </metadata>
  <defs
     id="defs4236" />
  <sodipodi:namedview
     pagecolor="#ffffff"
     bordercolor="#666666"
     borderopacity="1"
     objecttolerance="10"
     gridtolerance="10"
     guidetolerance="10"
     inkscape:pageopacity="0"
     inkscape:pageshadow="2"
     inkscape:window-width="1855"
     inkscape:window-height="1056"
     id="namedview4234"
     showgrid="false"
     inkscape:zoom="9.8333333"
     inkscape:cx="12"
     inkscape:cy="12"
     inkscape:window-x="65"
     inkscape:window-y="24"
     inkscape:window-maximized="1"
     inkscape:current-layer="svg4228" />
  <path
     d="M0 0h24v24H0z"
     fill="none"
     id="path4230" />
  <path
     d="M7 14c-1.66 0-3 1.34-3 3 0 1.31-1.16 2-2 2 .92 1.22 2.49 2 4 2 2.21 0 4-1.79 4-4 0-1.66-1.34-3-3-3zm13.71-9.37l-1.34-1.34c-.39-.39-1.02-.39-1.41 0L9 12.25 11.75 15l8.96-8.96c.39-.39.39-1.02 0-1.41z"
     id="path4232"
     style="fill:#1a9767;fill-opacity:1" />
</svg>
