<?xml version="1.0" encoding="UTF-8" standalone="no"?>
<svg
   xmlns:dc="http://purl.org/dc/elements/1.1/"
   xmlns:cc="http://creativecommons.org/ns#"
   xmlns:rdf="http://www.w3.org/1999/02/22-rdf-syntax-ns#"
   xmlns:svg="http://www.w3.org/2000/svg"
   xmlns="http://www.w3.org/2000/svg"
   xmlns:xlink="http://www.w3.org/1999/xlink"
   xmlns:sodipodi="http://sodipodi.sourceforge.net/DTD/sodipodi-0.dtd"
   xmlns:inkscape="http://www.inkscape.org/namespaces/inkscape"
   width="24"
   height="24"
   viewBox="0 0 24 24"
   id="svg4187"
   version="1.1"
   inkscape:version="0.91 r13725"
   sodipodi:docname="personal-growth-icon.svg">
  <metadata
     id="metadata4199">
    <rdf:RDF>
      <cc:Work
         rdf:about="">
        <dc:format>image/svg+xml</dc:format>
        <dc:type
           rdf:resource="http://purl.org/dc/dcmitype/StillImage" />
      </cc:Work>
    </rdf:RDF>
  </metadata>
  <sodipodi:namedview
     pagecolor="#ffffff"
     bordercolor="#666666"
     borderopacity="1"
     objecttolerance="10"
     gridtolerance="10"
     guidetolerance="10"
     inkscape:pageopacity="0"
     inkscape:pageshadow="2"
     inkscape:window-width="1855"
     inkscape:window-height="1056"
     id="namedview4197"
     showgrid="false"
     inkscape:zoom="38.291667"
     inkscape:cx="12"
     inkscape:cy="12"
     inkscape:window-x="65"
     inkscape:window-y="24"
     inkscape:window-maximized="1"
     inkscape:current-layer="svg4187" />
  <defs
     id="defs4189">
    <path
       id="a"
       d="M0 0h24v24H0V0z" />
  </defs>
  <clipPath
     id="b">
    <use
       xlink:href="#a"
       overflow="visible"
       id="use4193" />
  </clipPath>
  <path
     clip-path="url(#b)"
     d="M21 5c-1.11-.35-2.33-.5-3.5-.5-1.95 0-4.05.4-5.5 1.5-1.45-1.1-3.55-1.5-5.5-1.5S2.45 4.9 1 6v14.65c0 .25.25.5.5.5.1 0 .15-.05.25-.05C3.1 20.45 5.05 20 6.5 20c1.95 0 4.05.4 5.5 1.5 1.35-.85 3.8-1.5 5.5-1.5 1.65 0 3.35.3 4.75 1.05.1.05.15.05.25.05.25 0 .5-.25.5-.5V6c-.6-.45-1.25-.75-2-1zm0 13.5c-1.1-.35-2.3-.5-3.5-.5-1.7 0-4.15.65-5.5 1.5V8c1.35-.85 3.8-1.5 5.5-1.5 1.2 0 2.4.15 3.5.5v11.5z"
     id="path4195"
     style="fill:#1a9767;fill-opacity:1" />
</svg>
