<?xml version="1.0" encoding="UTF-8" standalone="no"?>
<!-- Generator: Adobe Illustrator 19.1.0, SVG Export Plug-In . SVG Version: 6.00 Build 0)  -->

<svg
   xmlns:dc="http://purl.org/dc/elements/1.1/"
   xmlns:cc="http://creativecommons.org/ns#"
   xmlns:rdf="http://www.w3.org/1999/02/22-rdf-syntax-ns#"
   xmlns:svg="http://www.w3.org/2000/svg"
   xmlns="http://www.w3.org/2000/svg"
   xmlns:sodipodi="http://sodipodi.sourceforge.net/DTD/sodipodi-0.dtd"
   xmlns:inkscape="http://www.inkscape.org/namespaces/inkscape"
   version="1.1"
   x="0px"
   y="0px"
   width="24px"
   height="24px"
   viewBox="0 0 24 24"
   enable-background="new 0 0 24 24"
   xml:space="preserve"
   id="svg4181"
   inkscape:version="0.91 r13725"
   sodipodi:docname="visibility-icon.svg"><metadata
     id="metadata4199"><rdf:RDF><cc:Work
         rdf:about=""><dc:format>image/svg+xml</dc:format><dc:type
           rdf:resource="http://purl.org/dc/dcmitype/StillImage" /></cc:Work></rdf:RDF></metadata><defs
     id="defs4197" /><sodipodi:namedview
     pagecolor="#ffffff"
     bordercolor="#666666"
     borderopacity="1"
     objecttolerance="10"
     gridtolerance="10"
     guidetolerance="10"
     inkscape:pageopacity="0"
     inkscape:pageshadow="2"
     inkscape:window-width="1920"
     inkscape:window-height="1020"
     id="namedview4195"
     showgrid="false"
     inkscape:zoom="34.833333"
     inkscape:cx="12"
     inkscape:cy="12"
     inkscape:window-x="0"
     inkscape:window-y="0"
     inkscape:window-maximized="1"
     inkscape:current-layer="Outline" /><g
     id="Bounding_Boxes"><g
       id="ui_x5F_spec_x5F_header_copy_3" /><path
       fill="none"
       d="M0,0h24v24H0V0z"
       id="path4185" /></g><g
     id="Outline"><g
       id="ui_x5F_spec_x5F_header" /><g
       id="g4189"
       style="fill:#1ead76;fill-opacity:1"><path
         d="M12,6c3.79,0,7.17,2.13,8.82,5.5C19.17,14.87,15.79,17,12,17s-7.17-2.13-8.82-5.5C4.83,8.13,8.21,6,12,6 M12,4    C7,4,2.73,7.11,1,11.5C2.73,15.89,7,19,12,19s9.27-3.11,11-7.5C21.27,7.11,17,4,12,4L12,4z"
         id="path4191"
         style="fill:#1ead76;fill-opacity:1" /><path
         d="M12,9c1.38,0,2.5,1.12,2.5,2.5S13.38,14,12,14s-2.5-1.12-2.5-2.5S10.62,9,12,9 M12,7c-2.48,0-4.5,2.02-4.5,4.5    S9.52,16,12,16s4.5-2.02,4.5-4.5S14.48,7,12,7L12,7z"
         id="path4193"
         style="fill:#1ead76;fill-opacity:1" /></g></g></svg>